# xmcd
#
# Track frame offsets:
#	150
#	21170
#	38235
#	55842
#	73010
#	89477
#	105165
#	126312
#	146237
#	165840
#	181347
#	200380
#	219210
#	234657
#
# Disc length: 3661 seconds
#
# Revision: 2
# Processed by: cddbd v1.4PL0 Copyright (c) Steve Scherf et al.
# Submitted via: audiograbber 1.80
#
DISCID=be0e4b0e
DTITLE=Long John Baldry - A Thrills a Thrill - Disk 2
DYEAR=1995
DGENRE=
TTITLE0=Passing Glances
TTITLE1=Rock With The Best
TTITLE2=It Ain't Easy
TTITLE3=25 Years Of Pain
TTITLE4=Stay The Way You Are
TTITLE5=Bad Attitude
TTITLE6=Let The Heartaches Stop
TTITLE7=Ain't No Love In The Heart Of The City
TTITLE8=This Is Japan
TTITLE9=The Sun Ain't Gonna Shine Anymore
TTITLE10=Here Comes Another Fool
TTITLE11=It Still Ain't Easy
TTITLE12=Midnight In New Orleans
TTITLE13=Don't Try To Lay No Boogie Woogie
EXTD=YEAR: 1995
EXTT0=
EXTT1=
EXTT2=
EXTT3=
EXTT4=
EXTT5=
EXTT6=
EXTT7=
EXTT8=
EXTT9=
EXTT10=
EXTT11=
EXTT12=
EXTT13=
PLAYORDER=
